<?xml version="1.0" encoding="utf-8"?>
<!-- Generator: Adobe Illustrator 27.5.0, SVG Export Plug-In . SVG Version: 6.00 Build 0)  -->
<svg version="1.1" xmlns="http://www.w3.org/2000/svg" xmlns:xlink="http://www.w3.org/1999/xlink" x="0px" y="0px"
	 viewBox="0 0 500 500" style="enable-background:new 0 0 500 500;" xml:space="preserve">
<g id="Floor">
	<ellipse id="Floor_4_" style="fill:#F5F5F5;" cx="249.048" cy="350.024" rx="235.608" ry="136.029"/>
</g>
<g id="Shadows">
	<path id="Shadow" style="fill:#E0E0E0;" d="M228.471,427.631l-96.954-55.975c-2.391-1.381-2.391-3.619,0-5l105.078-60.667
		c2.391-1.381,6.269-1.381,8.66,0l96.953,55.976c2.391,1.381,2.391,3.619,0,5l-105.077,60.666
		C234.739,429.012,230.862,429.012,228.471,427.631z"/>
	<ellipse id="Shadow_43_" style="fill:#E0E0E0;" cx="395.282" cy="396.699" rx="45.654" ry="26.358"/>
	<path id="Shadow_4_" style="fill:#E0E0E0;" d="M72.361,403.174l-40.64-23.464c-2.291-1.323-2.291-3.468,0-4.79l236.389-136.479
		c2.291-1.323,6.006-1.323,8.298,0l40.642,23.463c2.291,1.323,2.291,3.468,0,4.79L80.658,403.174
		C78.367,404.497,74.652,404.497,72.361,403.174z"/>
</g>
<g id="Device">
	<g id="Device_1_">
		<g id="XMLID_1341_">
			<g id="XMLID_1346_">
				<path id="XMLID_1347_" style="fill:#263238;" d="M218.442,356.707l34.937-20.201c3.601-2.079,5.401-4.804,5.402-7.529
					c0-2.726,0.015-4.86,0.015-4.86l-36.249-20.44c-1.921-1.109-3.478-3.806-3.478-6.024v-37.269l-61.023,35.262l-0.002,37.268
					c0,2.218,1.557,4.915,3.478,6.024l30.836,17.768C199.561,360.866,211.239,360.865,218.442,356.707z"/>
			</g>
			<path id="XMLID_1345_" d="M172.697,340.543v4.839l-11.184-6.445c-1.908-1.104-3.474-3.795-3.474-6.024v-37.264l11.626-6.707
				c0.241,2.952,0.502,6.004,0.743,8.976l-8.152,4.719v27.847c0,2.229,1.546,4.919,3.474,6.024L172.697,340.543z"/>
			<path id="XMLID_1344_" style="fill:#455A64;" d="M162.254,330.491c0,2.218,1.557,4.915,3.478,6.024l26.622,15.335
				c7.203,4.159,18.882,4.16,26.085,0.003l34.955-20.199c7.204-4.157,7.205-10.898,0.002-15.057l-26.639-15.345
				c-1.921-1.109-3.478-3.806-3.478-6.024l0-27.851l-61.024,35.262V330.491z"/>
			<path id="XMLID_1343_" style="fill:#37474F;" d="M233.84,305.346v-0.005l-7.084-4.09c-1.921-1.109-3.478-3.806-3.478-6.024
				l0-27.851l-61.025,35.262v27.852c0,2.218,1.557,4.915,3.478,6.024l6.961,4.019L233.84,305.346z"/>
			<path id="XMLID_1342_" style="fill:#37474F;" d="M258.789,324.121c0,0,0,2.128,0,4.859s-1.807,5.441-5.401,7.53l-34.943,20.19
				c-3.454,2.008-7.931,3.012-12.449,3.092v-4.839c4.518-0.06,8.995-1.104,12.449-3.092l34.943-20.21
				C256.982,329.582,258.789,326.852,258.789,324.121z"/>
		</g>
		<path id="XMLID_1340_" style="fill:#455A64;" d="M64.272,372.326c2.252,1.3,6.025,1.23,8.426-0.156
			c30.001-17.321,206-118.932,235.997-136.25c2.401-1.386,4.346-4.757,4.346-7.529V43.283c0-2.772-1.826-6.074-4.078-7.374
			c-2.252-1.3-6.024-1.23-8.425,0.156L64.545,172.315c-2.401,1.386-4.347,4.757-4.347,7.53l-0.003,185.107
			C60.195,367.724,62.02,371.026,64.272,372.326z"/>
		<path id="XMLID_1339_" style="fill:#37474F;" d="M72.699,372.165l235.996-136.249c2.401-1.386,4.347-4.757,4.347-7.53V43.278
			c0-2.772-1.946-3.896-4.347-2.51L72.702,177.018c-2.401,1.386-4.347,4.757-4.347,7.53l-0.003,185.107
			C68.352,372.427,70.298,373.551,72.699,372.165z"/>
		<path id="XMLID_1337_" style="fill:#37474F;" d="M72.059,377.127c-2.409,1.064-5.742,1.024-7.791-0.161
			c-2.249-1.305-4.076-4.598-4.076-7.389V358l8.152,4.719v11.577C68.345,376.826,69.951,377.971,72.059,377.127z"/>
		<path id="XMLID_1336_" style="fill:#455A64;" d="M68.345,362.719l0.007,11.57c0,2.772,1.946,3.896,4.347,2.51L308.695,240.55
			c2.401-1.386,4.347-4.757,4.347-7.53v-11.608L68.345,362.719z"/>
		<path id="XMLID_1334_" style="fill:#27DEBF;" d="M76.506,340.91l0.002-153.655c0-1.664,1.168-3.686,2.608-4.518L302.272,53.898
			c1.441-0.832,2.609-0.157,2.609,1.506l0.007,153.659c0,1.663-1.168,3.686-2.608,4.518L79.115,342.416
			C77.674,343.248,76.506,342.574,76.506,340.91z"/>
		<path id="XMLID_1333_" style="fill:#27DEBF;" d="M76.506,340.91l0.002-153.655c0-1.664,1.168-3.686,2.608-4.518L302.272,53.898
			c1.441-0.832,2.609-0.157,2.609,1.506l0.007,153.659c0,1.663-1.168,3.686-2.608,4.518L79.115,342.416
			C77.674,343.248,76.506,342.574,76.506,340.91z"/>
		<path id="XMLID_980_" style="opacity:0.8;fill:#FFFFFF;" d="M76.506,340.91l0.002-153.655c0-1.664,1.168-3.686,2.608-4.518
			L302.272,53.898c1.441-0.832,2.609-0.157,2.609,1.506l0.007,153.659c0,1.663-1.168,3.686-2.608,4.518L79.115,342.416
			C77.674,343.248,76.506,342.574,76.506,340.91z"/>
		<path id="XMLID_1332_" style="fill:#27DEBF;" d="M190.694,296.39c-1.986,1.147-3.596,3.935-3.596,6.228
			c0,2.293,1.61,3.222,3.596,2.076c1.986-1.147,3.596-3.935,3.596-6.228C194.29,296.172,192.68,295.243,190.694,296.39z"/>
		<path id="XMLID_1331_" style="fill:#263238;" d="M69.63,180.247c-0.783,1.365-1.265,2.911-1.285,4.297v178.175L60.193,358
			l0.005-178.155c0-1.385,0.497-2.931,1.28-4.296L69.63,180.247z"/>
	</g>
</g>
<g id="Newsletter_1_">
	<g id="Newsletter">
		<g id="Envelope">
			<g id="XMLID_995_">
				<path id="XMLID_1022_" style="fill:#27DEBF;" d="M121.952,196.147l133.381-77.008l5.337,3.081
					c1.38,0.797,2.509,2.752,2.509,4.346v98.393c0,1.593-1.129,3.549-2.509,4.346l-128.363,74.11c-1.38,0.797-3.638,0.797-5.018,0
					l-2.828-1.633c-1.38-0.797-2.509-2.752-2.509-4.346L121.952,196.147z"/>
				<path id="XMLID_1021_" style="opacity:0.2;" d="M121.952,196.147l133.381-77.008l5.337,3.081
					c1.38,0.797,2.509,2.752,2.509,4.346v98.393c0,1.593-1.129,3.549-2.509,4.346l-128.363,74.11c-1.38,0.797-3.638,0.797-5.018,0
					l-2.828-1.633c-1.38-0.797-2.509-2.752-2.509-4.346L121.952,196.147z"/>
				<path id="XMLID_1020_" style="fill:#27DEBF;" d="M254.597,110.489l0.546-0.297l-2.073-1.204v0.002
					c-0.178-0.104-0.362-0.193-0.55-0.263l-58.701-21.752c-1.554-0.576-3.572,0.066-4.508,1.433l-65.665,95.894
					c-0.936,1.367-1.695,3.818-1.695,5.475c0,2.741,0,6.369,0,6.369l2.035,1.182l131.346-78.189v-6.37
					C255.333,111.994,255.05,111.189,254.597,110.489z"/>
				<path id="XMLID_1019_" style="opacity:0.1;" d="M192.03,88.873c-0.26,0.2-0.49,0.45-0.68,0.72l-65.67,95.89
					c-0.48,0.71-0.92,1.71-1.22,2.74l-2.04-1.18c0.15-0.5,0.33-0.99,0.53-1.45c0.01-0.02,0.01-0.03,0.02-0.04
					c0.09-0.2,0.18-0.39,0.28-0.58c0.02-0.03,0.03-0.06,0.05-0.09c0.11-0.21,0.23-0.41,0.35-0.58l65.66-95.89
					c0.1-0.15,0.21-0.27,0.33-0.4c0.11-0.11,0.23-0.22,0.35-0.32L192.03,88.873z"/>
				<path id="XMLID_1018_" style="opacity:0.35;fill:#FFFFFF;" d="M255.12,110.183c-0.18-0.11-0.37-0.2-0.56-0.27l-58.71-21.76
					c-1.24-0.46-2.78-0.14-3.82,0.72l-2.04-1.18c1.05-0.85,2.58-1.18,3.83-0.72l58.7,21.75c0.19,0.07,0.37,0.16,0.55,0.27
					L255.12,110.183z"/>
				<g id="XMLID_999_">
					<path id="XMLID_1017_" style="fill:#27DEBF;" d="M123.296,184.879c0.113-0.207,0.23-0.402,0.35-0.577
						C123.526,184.477,123.409,184.672,123.296,184.879z"/>
					<path id="XMLID_1016_" style="fill:#27DEBF;" d="M189.641,88.012c0.111-0.113,0.228-0.219,0.352-0.319
						C189.869,87.794,189.749,87.897,189.641,88.012z"/>
					<path id="XMLID_1015_" style="fill:#27DEBF;" d="M122.416,187.045c0.15-0.502,0.332-0.997,0.534-1.455
						C122.747,186.049,122.567,186.542,122.416,187.045z"/>
					<path id="XMLID_1014_" style="fill:#27DEBF;" d="M122.967,185.549c0.09-0.201,0.185-0.391,0.282-0.574
						C123.151,185.158,123.057,185.348,122.967,185.549z"/>
					<path id="XMLID_1013_" style="opacity:0.2;" d="M122.95,185.59c0.006-0.013,0.011-0.028,0.017-0.041
						C122.961,185.563,122.956,185.577,122.95,185.59z"/>
					<polygon id="XMLID_1012_" style="opacity:0.2;" points="122.416,187.046 122.416,187.046 122.416,187.045 					"/>
					<polygon id="XMLID_1010_" style="opacity:0.2;" points="189.993,87.693 189.993,87.693 189.993,87.693 					"/>
					<path id="XMLID_1008_" style="opacity:0.2;" d="M123.248,184.975c0.016-0.031,0.031-0.066,0.048-0.096
						C123.28,184.91,123.265,184.944,123.248,184.975z"/>
					<path id="XMLID_1007_" style="opacity:0.2;" d="M189.311,88.408c0.097-0.141,0.212-0.27,0.33-0.395
						C189.52,88.136,189.408,88.266,189.311,88.408z"/>
				</g>
				<path id="XMLID_998_" style="fill:#27DEBF;" d="M191.346,89.59l-65.664,95.894c-0.936,1.367-1.695,3.818-1.695,5.475
					c0,2.741,0,6.368,0,6.368l133.383-77.013l-0.001-6.363c0-1.657-1.26-3.467-2.813-4.042l-58.701-21.752
					C194.3,87.581,192.282,88.223,191.346,89.59z"/>
				<path id="XMLID_1500_" style="opacity:0.05;" d="M257.368,113.951c0-0.762-0.274-1.55-0.713-2.242L124.46,188.223
					c0,0-0.007,0.012-0.013,0.021c-0.283,0.95-0.46,1.923-0.46,2.715c0,2.741,0,6.368,0,6.368l133.383-77.013L257.368,113.951z"/>
			</g>
			<g id="XMLID_14549_">
				<path id="XMLID_1046_" style="fill:#E0E0E0;" d="M181.107,209.46c2.66,6.29,4.09,13.12,4.09,20.18v3.89l-49.82,25.95v0.01h-0.01
					v-12.06l0.01-47.78c0-1.17,0.13-2.32,0.39-3.43c0,0,0,0,0-0.01c0.1-0.44,0.23-0.87,0.36-1.3c0.07-0.21,0.15-0.43,0.22-0.64
					c0.23-0.63,0.52-1.25,0.84-1.84c0.53-0.99,1.18-1.92,1.92-2.76c0.21-0.25,0.44-0.49,0.67-0.72c0.24-0.23,0.48-0.46,0.73-0.68
					c0.75-0.67,1.57-1.25,2.46-1.77c4.75-2.75,10.43-2.75,15.19,0c0,0,0.88-0.36,2.5-0.98c7.37,4.58,13.36,10.86,17.58,18.15
					C179.307,205.54,180.268,207.47,181.107,209.46z"/>
				<polygon id="XMLID_1050_" style="fill:#F5F5F5;" points="341.107,362.754 232.808,425.419 232.808,419.537 341.097,356.872 				
					"/>
				<path id="XMLID_984_" style="fill:#EBEBEB;" d="M181.107,209.46c-0.84-1.99-1.8-3.92-2.87-5.79c-0.79-1.37-1.64-2.7-2.56-3.99
					c-0.25-0.36-0.51-0.72-0.78-1.07c-0.24-0.33-0.48-0.65-0.73-0.96c-0.21-0.27-0.42-0.54-0.64-0.8c-0.07-0.09-0.14-0.18-0.21-0.26
					c-0.27-0.32-0.54-0.64-0.82-0.96c-0.12-0.15-0.24-0.29-0.38-0.43c-0.21-0.25-0.44-0.5-0.66-0.74c-0.5-0.55-1.02-1.09-1.55-1.6
					c-0.3-0.31-0.6-0.61-0.91-0.89c-0.09-0.1-0.18-0.18-0.27-0.26c-0.28-0.26-0.56-0.52-0.84-0.77c-0.33-0.3-0.66-0.59-1-0.87
					c-0.28-0.24-0.55-0.47-0.84-0.7c-0.13-0.12-0.27-0.23-0.42-0.34c-0.32-0.26-0.65-0.51-0.98-0.76c-0.42-0.33-0.85-0.64-1.29-0.95
					c-0.44-0.32-0.89-0.63-1.34-0.92c-0.45-0.3-0.9-0.59-1.36-0.88c-0.09-0.06-0.17-0.11-0.26-0.16c-0.39-0.24-0.78-0.47-1.17-0.7
					c-0.35-0.2-0.71-0.39-1.06-0.56c-0.62-0.3-1.24-0.56-1.87-0.79c-0.7-0.25-1.42-0.45-2.12-0.61c-0.24-0.05-0.47-0.1-0.71-0.14
					c-0.96-0.16-1.91-0.24-2.86-0.24c-0.26,0-0.51,0.01-0.77,0.02c-0.38,0.01-0.76,0.04-1.13,0.09c-0.21,0.02-0.42,0.05-0.63,0.08
					c-0.13,0.01-0.27,0.03-0.41,0.06c-0.16,0.02-0.31,0.05-0.47,0.09c-0.02,0-0.04,0-0.06,0.01c-0.23,0.05-0.47,0.11-0.7,0.16
					c-0.18,0.04-0.35,0.09-0.53,0.15c-0.09,0.02-0.18,0.05-0.27,0.08c-0.19,0.05-0.38,0.11-0.57,0.18c-0.51,0.16-1.01,0.36-1.5,0.58
					c-0.3,0.13-0.6,0.28-0.9,0.43c-0.09,0.04-0.18,0.08-0.26,0.14c-0.16,0.08-0.33,0.17-0.49,0.27c-0.16,0.09-0.31,0.2-0.47,0.29
					c-0.57,0.34-1.13,0.74-1.66,1.15c-0.02,0.04-0.06,0.05-0.08,0.07c-0.27,0.22-0.54,0.44-0.81,0.69c0,0,0,0-0.01,0.01
					c-0.19,0.17-0.38,0.35-0.56,0.53c-0.11,0.1-0.21,0.21-0.31,0.31c-0.49,0.51-0.96,1.07-1.39,1.64c-0.18,0.24-0.35,0.48-0.51,0.73
					c-0.2,0.29-0.38,0.58-0.56,0.89c0,0.01-0.01,0.02-0.01,0.04c-0.18,0.29-0.34,0.59-0.49,0.9c-0.21,0.41-0.4,0.82-0.57,1.26
					c-0.08,0.2-0.17,0.41-0.24,0.63c-0.04,0.09-0.07,0.19-0.1,0.28c-0.11,0.32-0.2,0.64-0.29,0.97c-0.09,0.31-0.17,0.64-0.23,0.96
					c0,0.01-0.01,0.03,0,0.04c-0.05,0.21-0.1,0.43-0.13,0.66c-0.02,0.08-0.03,0.17-0.04,0.25c-0.03,0.22-0.07,0.43-0.09,0.64
					c-0.03,0.28-0.06,0.57-0.07,0.86c-0.03,0.4-0.04,0.79-0.04,1.2l-0.02,47.77h5.14l0.01-47.77c0-4.41,2.27-8.36,6.09-10.56
					c3.81-2.2,8.36-2.2,12.18,0.01c8.593,4.953,15.49,12.681,19.486,21.82l6.097,1.451
					C181.892,211.396,181.514,210.422,181.107,209.46z"/>
			</g>
			<g id="XMLID_738_">
				<path id="XMLID_979_" style="fill:#27DEBF;" d="M259.795,226.27c-0.04,0.07-0.079,0.13-0.139,0.2l-55.583-17.624
					c-4.365-1.939-9.476-0.36-12.011,3.697l-59.421,88.316l-2.197,1.269l-0.02,0.01c-0.666,0.37-1.263,0.42-1.7,0.19l61.111-91.035
					c2.536-4.057,7.656-5.636,12.021-3.707L259.795,226.27z"/>
				<path id="XMLID_975_" style="opacity:0.4;fill:#FFFFFF;" d="M186.59,221.211l0.14-0.12l-54.09,79.771l-2.2,1.27l-0.02,0.01
					c-0.66,0.37-1.26,0.41-1.7,0.19l55.73-82.401L186.59,221.211z"/>
				<path id="XMLID_974_" style="opacity:0.4;fill:#FFFFFF;" d="M259.8,226.273c-0.04,0.07-0.08,0.13-0.14,0.2l-55.59-17.631
					c-4.36-1.94-9.47-0.36-12.01,3.7l-2.2-1.28c2.54-4.04,7.64-5.6,12-3.68L259.8,226.273z"/>
				<path id="XMLID_971_" style="fill:#27DEBF;" d="M263.133,125.937h-0.01c-0.12-0.72-0.5-0.92-0.99-0.58
					c-0.19,0.13-0.41,0.35-0.64,0.66l-0.28,0.39l-54.85,83.389l-8.19,11.41c-0.92,1.3-2.94,2.05-4.51,1.69l-7.07-1.68l-53.97-19.869
					c-0.39-0.09-0.76-0.1-1.1-0.04c-0.14,0.03-0.28,0.07-0.41,0.13l2.034-1.176l51.743,18.963l6.813,2.431
					c1.56,0.37,3.58-0.38,4.51-1.69l8.19-11.4l55.12-83.779c0.18-0.25,0.4-0.43,0.62-0.57l-4.77-2.75l2-1.15l3.3,1.9
					C261.873,122.917,262.883,124.487,263.133,125.937z"/>
				<path id="XMLID_970_" style="opacity:0.4;fill:#FFFFFF;" d="M206.36,209.792l-8.19,11.41c-0.92,1.3-2.94,2.05-4.51,1.69
					l-7.07-1.68l0.14-0.12l0.34-0.54l4.63,1.1c1.56,0.37,3.58-0.38,4.51-1.69l8.11-11.28L206.36,209.792z"/>
				<path id="XMLID_936_" style="opacity:0.1;" d="M260.67,122.213l-3.3-1.9l-2,1.15l4.77,2.75c0.004,0.003,0.008,0.006,0.012,0.009
					l-0.008-0.005c-0.24,0.151-0.451,0.336-0.62,0.57L204.4,208.561l-0.08,0.11v0.01l2.04,1.11l54.85-83.389l0.28-0.39
					c0.23-0.31,0.45-0.53,0.64-0.66c0.49-0.34,0.87-0.14,0.99,0.58h0.01C262.88,124.483,261.87,122.913,260.67,122.213z"/>
				<path id="XMLID_935_" style="fill:#27DEBF;" d="M133.719,202.943l-11.768-6.797l0.001,101.29c0,1.594,1.129,3.549,2.509,4.346
					l2.828,1.633c1.38,0.797,3.639,0.797,5.018,0l1.412-0.815V202.943z"/>
				<path id="XMLID_934_" style="opacity:0.15;" d="M133.719,202.943l-11.768-6.797l0.001,101.29c0,1.594,1.129,3.549,2.509,4.346
					l2.828,1.633c1.38,0.797,3.639,0.797,5.018,0l1.412-0.815V202.943z"/>
				<path id="XMLID_931_" style="fill:#455A64;" d="M261.213,126.407v97.32c0,0.82-0.29,1.74-0.78,2.54
					c-0.39,0.66-0.9,1.25-1.47,1.64l-0.09,0.06c-0.06,0.04-0.11,0.08-0.17,0.11l-128.36,74.1l-0.02,0.01
					c-0.17,0.1-0.33,0.18-0.49,0.23c-0.02-0.14-0.03-0.29-0.03-0.45v-98.4c0-1.59,1.25-2.59,2.82-2.22l53.97,19.869l7.07,1.68
					c1.57,0.36,3.59-0.39,4.51-1.69l8.19-11.41L261.213,126.407z"/>
				<path id="XMLID_915_" style="fill:#27DEBF;" d="M263.183,126.567v98.39c0,0.83-0.3,1.74-0.78,2.54c-0.4,0.66-0.9,1.25-1.47,1.65
					l-0.1,0.05c-0.06,0.04-0.1,0.08-0.16,0.11l-128.36,74.1l-0.02,0.01c-0.67,0.38-1.27,0.43-1.71,0.2c-0.39-0.2-0.66-0.61-0.75-1.2
					c-0.02-0.14-0.03-0.29-0.03-0.45v-98.4c0-1.59,1.25-2.59,2.82-2.22l53.97,19.869l7.07,1.68c1.57,0.36,3.59-0.39,4.51-1.69
					l8.19-11.41l54.85-83.389l0.28-0.39C262.423,124.727,263.183,124.967,263.183,126.567z"/>
				<path id="XMLID_875_" style="fill:#27DEBF;" d="M260.672,229.308c0.058-0.029,0.106-0.068,0.165-0.106l0.096-0.058
					c0.57-0.396,1.072-0.985,1.468-1.642c0.475-0.788,0.769-1.688,0.779-2.498l-56.812-15.206l38.045,28.898L260.672,229.308z"/>
				<path id="XMLID_874_" style="opacity:0.2;" d="M260.672,229.308c0.058-0.029,0.106-0.068,0.165-0.106l0.096-0.058
					c0.57-0.396,1.072-0.985,1.468-1.642c0.475-0.788,0.769-1.688,0.779-2.498l-56.812-15.206l38.045,28.898L260.672,229.308z"/>
				<path id="XMLID_867_" style="fill:#27DEBF;" d="M129.801,301.963c0,0.831,0.299,1.4,0.782,1.651
					c0.444,0.232,1.043,0.184,1.71-0.193l0.019-0.01l44.193-25.513l10.092-56.685l-56.797,79.116V301.963z"/>
				<path id="XMLID_861_" style="opacity:0.15;" d="M192.04,212.531l-61.46,91.081c-0.48-0.25-0.78-0.82-0.78-1.65v-1.63
					l60.04-89.041c0-0.01,0.01-0.02,0.02-0.03L192.04,212.531z"/>
				<path id="XMLID_833_" style="fill:#27DEBF;" d="M262.4,227.502c-0.395,0.657-0.898,1.246-1.468,1.642l-0.096,0.058
					l-128.525,74.21l-0.019,0.01c-0.666,0.377-1.265,0.425-1.71,0.193l61.466-91.098c2.548-4.067,7.695-5.646,12.085-3.708
					L262.4,227.502z"/>
				<path id="XMLID_765_" style="fill:#27DEBF;" d="M262.4,227.503c-0.39,0.66-0.9,1.25-1.47,1.64l-0.09,0.06l-128.53,74.21
					l-0.02,0.01c-0.66,0.37-1.26,0.42-1.71,0.19l1.71-2.72l126.31-72.94l0.1-0.06c0.51-0.36,0.97-0.87,1.33-1.44L262.4,227.503z"/>
				<path id="XMLID_764_" style="opacity:0.15;" d="M122.42,187.043l2.04,1.18c-0.29,0.96-0.47,1.94-0.47,2.74c0,2.74,0,6.36,0,6.36
					l-2.04-1.18c0,0,0-3.63,0-6.37C121.95,188.983,122.13,188.003,122.42,187.043z"/>
				<polygon id="XMLID_763_" style="fill:#27DEBF;" points="133.147,200.261 131.113,201.437 129.053,200.247 123.983,197.327 
					125.953,196.157 				"/>
				<path id="XMLID_761_" style="opacity:0.1;" d="M133.238,200.299l-7.284-4.142l-1.97,1.17l5.07,2.92l2.06,1.19l0.021-0.012
					c0.123-0.054,0.254-0.094,0.385-0.122c0.34-0.06,0.71-0.05,1.1,0.04l4.101,1.513l47.112,17.344l0.737-1.093L133.238,200.299z"/>
			</g>
		</g>
		<g id="XMLID_1102_">
			<g id="XMLID_1045_">
				<path style="fill:#FFFFFF;" d="M211.175,406.796c-15.865-9.153-25.72-26.219-25.72-44.539v-132.43
					c0-7.035-1.386-13.888-4.121-20.368c-0.84-1.99-1.818-3.959-2.904-5.852c-4.604-7.963-11.242-14.597-19.195-19.185
					c-2.772-1.604-5.76-2.417-8.881-2.417c-1.08,0-2.163,0.102-3.231,0.302l8.447-4.873l47.582-27.473l46.95-27.275l0.15-0.092
					c2.559-1.476,5.464-2.26,8.39-2.26c2.941,0,5.762,0.767,8.383,2.278c7.805,4.502,14.315,11.014,18.829,18.829
					c4.509,7.808,6.892,16.701,6.892,25.72v132.42c0,18.671,10.047,36.073,26.221,45.415l20.895,12.068l-107.29,62.087
					L211.175,406.796z"/>
				<path style="fill:#F5F5F5;" d="M258.64,119.835v1c2.852,0,5.588,0.744,8.133,2.212c7.728,4.459,14.176,10.906,18.646,18.645
					c4.465,7.731,6.825,16.539,6.825,25.47v132.419c0,18.85,10.143,36.418,26.47,45.848l20.146,11.635l-106.291,61.509
					l-21.144-12.211c-15.711-9.064-25.47-25.964-25.47-44.105v-132.43c0-7.103-1.4-14.021-4.16-20.562
					c-0.848-2.008-1.834-3.995-2.933-5.909c-4.648-8.038-11.349-14.734-19.376-19.366c-2.849-1.649-5.922-2.485-9.132-2.485
					c-0.293,0-0.586,0.007-0.878,0.022l6.344-3.659l47.585-27.474l46.97-27.287l0.115-0.071c2.495-1.44,5.314-2.201,8.153-2.201
					V119.835 M258.64,119.835c-3.07,0-6.052,0.834-8.652,2.335l-0.139,0.085l-46.949,27.274l-47.582,27.473l-12.895,7.438
					c2.426-1.247,5.142-1.935,7.929-1.935c2.882,0,5.841,0.736,8.631,2.35c8.035,4.636,14.525,11.243,19.012,19.001
					c1.076,1.876,2.035,3.805,2.877,5.797c2.654,6.288,4.082,13.118,4.082,20.173v132.43c0,18.553,9.9,35.7,25.97,44.971
					l21.644,12.5l108.289-62.665l-21.644-12.5c-16.07-9.282-25.97-26.429-25.97-44.982V167.162c0-9.271-2.472-18.202-6.959-25.97
					c-4.486-7.769-10.976-14.376-19.012-19.012C264.481,120.57,261.522,119.835,258.64,119.835L258.64,119.835z"/>
			</g>
			<path id="XMLID_983_" style="fill:#F0F0F0;" d="M232.807,419.54l-21.64-12.5c-16.07-9.27-25.97-26.42-25.97-44.97V229.64
				c0-5.981-1.026-11.797-2.957-17.259l-6.097-1.451c0.11,0.252,0.218,0.506,0.324,0.76c2.39,5.74,3.6,11.77,3.6,17.95v132.43
				c0,20.31,10.93,39.25,28.53,49.42l21.68,12.51l2.531,1.419L232.807,419.54z"/>
			<g id="XMLID_1101_">
				<path id="XMLID_667_" style="fill:#27DEBF;" d="M212.511,193.231l46.65-26.913c0.718-0.414,1.061-1.378,0.743-2.143
					c-0.639-1.535-1.349-3.037-2.129-4.503c-0.664-1.247-1.375-2.47-2.135-3.661c-0.445-0.699-1.406-0.917-2.123-0.503
					l-46.652,26.933c-0.717,0.414-0.986,1.206-0.615,1.778c0.224,0.345,0.444,0.693,0.659,1.043c1.093,1.786,2.078,3.628,2.952,5.53
					c0.274,0.59,0.539,1.191,0.792,1.797C210.972,193.352,211.794,193.645,212.511,193.231z"/>
				<path id="XMLID_669_" style="fill:#E0E0E0;" d="M182.017,187.405l86.085-49.687c0.717-0.414,0.84-1.24,0.253-1.825
					c-0.29-0.29-0.584-0.576-0.882-0.859c-0.6-0.571-1.683-0.682-2.4-0.268l-86.087,49.698c-0.717,0.414-0.797,1.196-0.195,1.766
					c0.296,0.281,0.589,0.565,0.878,0.852C180.257,187.666,181.3,187.819,182.017,187.405z"/>
				<g id="XMLID_267_">
					<path id="XMLID_698_" style="fill:#27DEBF;" d="M173.121,181.574c-0.547-0.388-1.103-0.766-1.667-1.133
						c-0.852-0.555-1.723-1.082-2.612-1.581c-0.406-0.229-0.816-0.439-1.229-0.631c-0.692-0.322-0.693-0.869,0.024-1.284
						l86.125-49.727c0.717-0.414,1.379-0.72,1.478-0.681c0.06,0.024,0.119,0.047,0.179,0.072c0.84,0.341,1.67,0.749,2.486,1.226
						c1.348,0.788,2.652,1.633,3.91,2.529c0.675,0.481,0.627,1.224-0.09,1.638l-86.095,49.708
						C174.914,182.123,173.797,182.053,173.121,181.574z"/>
					<path id="XMLID_268_" style="opacity:0.4;" d="M173.121,181.574c-0.547-0.388-1.103-0.766-1.667-1.133
						c-0.852-0.555-1.723-1.082-2.612-1.581c-0.406-0.229-0.816-0.439-1.229-0.631c-0.692-0.322-0.693-0.869,0.024-1.284
						l86.125-49.727c0.717-0.414,1.379-0.72,1.478-0.681c0.06,0.024,0.119,0.047,0.179,0.072c0.84,0.341,1.67,0.749,2.486,1.226
						c1.348,0.788,2.652,1.633,3.91,2.529c0.675,0.481,0.627,1.224-0.09,1.638l-86.095,49.708
						C174.914,182.123,173.797,182.053,173.121,181.574z"/>
				</g>
				<g id="XMLID_650_">
					<path id="XMLID_739_" style="fill:#27DEBF;" d="M254.105,228.713v-37.01c0-1.197-0.065-4.328-0.192-5.503
						c-0.127-1.834-0.359-3.648-0.681-5.437c-0.146-0.815-0.867-1.136-1.584-0.722l-56.429,32.569
						c-0.717,0.414-1.16,1.408-1.014,2.223c0.503,2.812,0.776,5.683,0.805,8.598c0.018,0.168,0.027,5.198,0.027,5.369v34.015
						c0,0.829,0.582,1.164,1.299,0.75l56.469-32.602C253.523,230.549,254.105,229.542,254.105,228.713z"/>
					<path id="XMLID_270_" style="opacity:0.8;fill:#FFFFFF;" d="M254.105,228.713v-37.01c0-1.197-0.065-4.328-0.192-5.503
						c-0.127-1.834-0.359-3.648-0.681-5.437c-0.146-0.815-0.867-1.136-1.584-0.722l-56.429,32.569
						c-0.717,0.414-1.16,1.408-1.014,2.223c0.503,2.812,0.776,5.683,0.805,8.598c0.018,0.168,0.027,5.198,0.027,5.369v34.015
						c0,0.829,0.582,1.164,1.299,0.75l56.469-32.602C253.523,230.549,254.105,229.542,254.105,228.713z"/>
					<path id="XMLID_271_" style="fill:#27DEBF;" d="M236.861,208.682l-9.833,19.76l3.578,4.691l-20.081-17.147l-15.487,38.078
						v8.751c0,0.829,0.582,1.164,1.299,0.75l56.469-32.602c0.717-0.414,1.299-1.422,1.299-2.25v-5.727L236.861,208.682z"/>
				</g>
				<path id="XMLID_754_" style="fill:#27DEBF;" d="M216.026,261.579l46.624-26.919c0.717-0.414,1.299-0.078,1.299,0.75v6.381
					c0,0.828-0.582,1.836-1.299,2.25l-46.624,26.918c-0.717,0.414-1.299,0.078-1.299-0.75v-6.381
					C214.727,263,215.309,261.993,216.026,261.579z"/>
				<g id="XMLID_1025_">
					<path id="XMLID_759_" style="fill:#E0E0E0;" d="M206.182,281.334l66.313-38.286c0.717-0.414,1.299-0.079,1.299,0.75v1.69
						c0,0.828-0.582,1.836-1.299,2.25l-66.313,38.286c-0.717,0.414-1.299,0.078-1.299-0.75v-1.69
						C204.883,282.755,205.464,281.748,206.182,281.334z"/>
					<path id="XMLID_1023_" style="fill:#E0E0E0;" d="M201.603,293.358l74.581-43.059c0.717-0.414,1.299-0.078,1.299,0.75v1.691
						c0,0.828-0.582,1.836-1.299,2.25l-74.582,43.059c-0.717,0.414-1.299,0.078-1.299-0.75l0-1.691
						C200.303,294.78,200.885,293.773,201.603,293.358z"/>
				</g>
				<g id="XMLID_985_">
					<path id="XMLID_1610_" style="fill:#27DEBF;" d="M196.345,310.477l22.991-13.274c0.717-0.414,1.299-0.078,1.299,0.75v25.131
						c0,0.828-0.582,1.836-1.299,2.25l-22.991,13.274c-0.717,0.414-1.299,0.078-1.299-0.75v-25.131
						C195.046,311.899,195.628,310.891,196.345,310.477z"/>
					<path id="XMLID_272_" style="opacity:0.5;fill:#FFFFFF;" d="M196.345,310.477l22.991-13.274
						c0.717-0.414,1.299-0.078,1.299,0.75v25.131c0,0.828-0.582,1.836-1.299,2.25l-22.991,13.274
						c-0.717,0.414-1.299,0.078-1.299-0.75v-25.131C195.046,311.899,195.628,310.891,196.345,310.477z"/>
				</g>
				<path id="XMLID_1609_" style="fill:#27DEBF;" d="M227.848,292.288l22.99-13.274c0.718-0.414,1.299-0.078,1.299,0.75v25.131
					c0,0.828-0.582,1.836-1.299,2.25l-22.99,13.274c-0.717,0.414-1.299,0.078-1.299-0.75v-25.131
					C226.549,293.71,227.131,292.703,227.848,292.288z"/>
				<g id="XMLID_668_">
					<path id="XMLID_1608_" style="fill:#27DEBF;" d="M259.351,274.099l22.991-13.274c0.717-0.414,1.299-0.078,1.299,0.75v25.131
						c0,0.828-0.582,1.836-1.299,2.25l-22.991,13.274c-0.717,0.414-1.299,0.078-1.299-0.75v-25.131
						C258.052,275.521,258.634,274.514,259.351,274.099z"/>
					<path id="XMLID_273_" style="opacity:0.3;" d="M259.351,274.099l22.991-13.274c0.717-0.414,1.299-0.078,1.299,0.75v25.131
						c0,0.828-0.582,1.836-1.299,2.25l-22.991,13.274c-0.717,0.414-1.299,0.078-1.299-0.75v-25.131
						C258.052,275.521,258.634,274.514,259.351,274.099z"/>
				</g>
				<g id="XMLID_994_">
					<path id="XMLID_1217_" style="fill:#E0E0E0;" d="M278.888,305.063l-76.159,43.962c-0.717,0.414-1.299,0.078-1.299-0.75v-1.682
						c0-0.828,0.582-1.836,1.299-2.25l76.157-43.97c0.717-0.414,1.299-0.078,1.299,0.75l0.001,1.689
						C280.187,303.642,279.606,304.649,278.888,305.063z"/>
					<path id="XMLID_1503_" style="fill:#E0E0E0;" d="M203.106,358.198l76.17-43.975c0.717-0.414,1.215-1.416,1.133-2.24
						c-0.049-0.491-0.091-0.984-0.126-1.478c-0.058-0.826-0.662-1.163-1.379-0.748l-76.144,43.96
						c-0.717,0.414-1.278,1.422-1.226,2.249c0.032,0.498,0.07,0.996,0.115,1.491C201.725,358.281,202.389,358.612,203.106,358.198z"
						/>
				</g>
				<g id="XMLID_986_">
					<path id="XMLID_1506_" style="fill:#27DEBF;" d="M245.08,343.308l-46.64,26.933c-0.717,0.414-1.112,1.396-0.855,2.184
						c3.57,10.969,10.741,20.579,20.532,27.118c0.689,0.46,1.84,0.479,2.558,0.065l46.68-26.949c0.717-0.414,0.729-1.104,0.04-1.563
						c-9.805-6.533-16.988-16.135-20.57-27.105C246.567,343.203,245.797,342.894,245.08,343.308z"/>
					<path id="XMLID_281_" style="opacity:0.8;fill:#FFFFFF;" d="M245.08,343.308l-46.64,26.933
						c-0.717,0.414-1.112,1.396-0.855,2.184c3.57,10.969,10.741,20.579,20.532,27.118c0.689,0.46,1.84,0.479,2.558,0.065
						l46.68-26.949c0.717-0.414,0.729-1.104,0.04-1.563c-9.805-6.533-16.988-16.135-20.57-27.105
						C246.567,343.203,245.797,342.894,245.08,343.308z"/>
					<path id="XMLID_726_" style="opacity:0.8;fill:#27DEBF;" d="M267.394,371.095c-3.045-2.029-5.837-4.355-8.347-6.925
						c-7.779-0.637-20.154-3.223-20.154-3.223l-3.638,12.309l8.326,2.934c-7.071,0.561-28.854-4.69-28.854-4.69
						c-1.564,7.437-1.488,20.199-1.414,24.403c1.523,1.296,3.121,2.516,4.803,3.64c0.689,0.46,1.84,0.479,2.558,0.064l46.68-26.949
						C268.072,372.244,268.083,371.555,267.394,371.095z"/>
					<path id="XMLID_648_" style="opacity:0.8;fill:#27DEBF;" d="M239.685,355.433c0.837,1.499,3.082,2.056,4.565,1.193
						c1.484-0.863,1.905-2.865,1.105-4.353s-2.899-2.269-4.432-1.406C239.391,351.728,238.848,353.934,239.685,355.433z"/>
				</g>
				<path id="XMLID_1544_" style="fill:#27DEBF;" d="M264.534,350.836l26.954-15.564c0.717-0.414,0.916-1.303,0.467-1.999
					c-0.928-1.436-1.785-2.918-2.566-4.438c-0.379-0.737-1.249-1.008-1.966-0.594l-26.95,15.561
					c-0.717,0.414-1.011,1.358-0.633,2.095c0.781,1.521,1.637,3.003,2.564,4.44C262.852,351.033,263.816,351.25,264.534,350.836z"/>
				<g id="XMLID_991_">
					<path id="XMLID_1663_" style="fill:#E0E0E0;" d="M264.784,360.072l36.816-21.254c0.717-0.414,0.834-1.234,0.28-1.85
						c-0.257-0.285-0.51-0.573-0.76-0.864c-0.54-0.628-1.543-0.815-2.26-0.401l-36.808,21.255c-0.717,0.414-0.878,1.273-0.339,1.902
						c0.248,0.289,0.5,0.576,0.755,0.86C263.021,360.337,264.067,360.487,264.784,360.072z"/>
					<path id="XMLID_1914_" style="fill:#E0E0E0;" d="M267.651,364.744c0.336,0.283,0.676,0.562,1.02,0.837
						c0.647,0.517,1.767,0.585,2.484,0.171l36.836-21.247c0.718-0.414,0.762-1.151,0.114-1.667c-0.351-0.28-0.698-0.564-1.041-0.852
						c-0.634-0.533-1.716-0.646-2.433-0.232l-36.815,21.257C267.1,363.426,267.017,364.211,267.651,364.744z"/>
				</g>
				<path id="XMLID_1218_" style="fill:#E0E0E0;" d="M248.475,392.939l46.681-26.951c0.717-0.414,1.881-0.414,2.598,0l1.463,0.845
					c0.717,0.414,0.717,1.086,0,1.5l-46.681,26.951c-0.717,0.414-1.881,0.414-2.598,0l-1.464-0.845
					C247.758,394.025,247.758,393.353,248.475,392.939z"/>
				<g id="XMLID_1030_">
					<g id="XMLID_419_">
						<path style="fill:#FAFAFA;" d="M235.715,203.318l46.624-26.93c0.717-0.414,1.299-0.079,1.299,0.75v6.381
							c0,0.828-0.582,1.836-1.299,2.25l-46.624,26.918c-0.717,0.414-1.299,0.079-1.299-0.75v-6.369
							C234.416,204.74,234.997,203.733,235.715,203.318z"/>
						<path style="fill:#E0E0E0;" d="M235.132,213.364c-0.21,0-0.41-0.05-0.586-0.152c-0.4-0.231-0.63-0.696-0.63-1.274v-6.369
							c0-1.003,0.68-2.181,1.549-2.683l46.624-26.93c0.5-0.288,1.018-0.321,1.419-0.091c0.4,0.231,0.63,0.696,0.63,1.274v6.381
							c0,1.004-0.681,2.182-1.549,2.683l-46.624,26.919C235.685,213.282,235.399,213.364,235.132,213.364z M235.965,203.751
							c-0.559,0.323-1.049,1.172-1.049,1.817v6.369c0,0.246,0.07,0.373,0.13,0.408c0.06,0.033,0.205,0.032,0.418-0.091
							l46.624-26.918c0.559-0.322,1.049-1.171,1.049-1.817v-6.381c0-0.246-0.07-0.373-0.13-0.408
							c-0.061-0.034-0.205-0.032-0.419,0.091L235.965,203.751z"/>
					</g>
					<g id="XMLID_758_">
						<path style="fill:#FAFAFA;" d="M235.715,217.462l46.624-26.93c0.717-0.414,1.299-0.079,1.299,0.75v6.381
							c0,0.828-0.582,1.836-1.299,2.25l-46.624,26.918c-0.717,0.414-1.299,0.078-1.299-0.75v-6.369
							C234.416,218.884,234.997,217.876,235.715,217.462z"/>
						<path style="fill:#E0E0E0;" d="M235.132,227.507c-0.21,0-0.41-0.05-0.586-0.152c-0.4-0.231-0.63-0.696-0.63-1.274v-6.369
							c0-1.003,0.68-2.182,1.549-2.683l46.624-26.93c0.5-0.288,1.018-0.322,1.419-0.091c0.4,0.232,0.63,0.696,0.63,1.274v6.381
							c0,1.003-0.681,2.182-1.549,2.683l-46.624,26.919C235.685,227.426,235.399,227.507,235.132,227.507z M282.918,190.855
							c-0.076,0-0.188,0.029-0.329,0.11l-46.624,26.93c-0.559,0.322-1.049,1.171-1.049,1.817v6.369c0,0.246,0.07,0.373,0.13,0.408
							c0.06,0.032,0.205,0.032,0.418-0.091l46.624-26.918c0.559-0.322,1.049-1.171,1.049-1.817v-6.381
							c0-0.246-0.07-0.373-0.13-0.408C282.987,190.862,282.957,190.855,282.918,190.855z"/>
					</g>
				</g>
			</g>
		</g>
	</g>
</g>
<g id="Plants">
	<g id="Plants_4_">
		<g id="XMLID_3177_">
			<g id="XMLID_3186_">
				<path id="XMLID_3187_" style="fill:#27DEBF;" d="M117.077,393.501l8.764-5.098c0,0,3.016-19.098,0.019-35.596
					c-4.213-23.196-20.25-30.86-25.953-28.413c-5.703,2.447-6.897,9.375,3.81,22.586
					C110.035,354.776,116.775,371.891,117.077,393.501z"/>
			</g>
			<g id="XMLID_3181_" style="opacity:0.2;">
				<path id="XMLID_3185_" d="M117.077,393.501l8.764-5.098c0,0,3.016-19.098,0.019-35.596c-4.213-23.196-20.25-30.86-25.953-28.413
					c-5.703,2.447-6.897,9.375,3.81,22.586C110.035,354.776,116.775,371.891,117.077,393.501z"/>
			</g>
			<g id="XMLID_3179_">
				<path id="XMLID_3180_" style="fill:#FFFFFF;" d="M121.042,383.674c-0.024,0-0.048-0.001-0.072-0.004
					c-0.285-0.033-0.49-0.29-0.457-0.575c2.509-21.865-6.808-45.542-16.878-54.938c-0.21-0.195-0.221-0.525-0.025-0.734
					c0.196-0.208,0.525-0.221,0.735-0.025c10.254,9.568,19.747,33.629,17.201,55.816
					C121.516,383.475,121.297,383.669,121.042,383.674z"/>
			</g>
		</g>
		<g id="XMLID_3170_">
			<g id="XMLID_3175_">
				<path id="XMLID_3176_" style="fill:#27DEBF;" d="M97.637,404.765c-1.136,0.688-3.617-0.527-4.54-1.116
					c-1.58-1.008-2.876-2.458-3.752-4.111c-1.02-1.924-1.313-4.004-1.058-6.164c0.132-1.12,0.42-2.216,0.706-3.307
					c0.281-1.071,0.563-2.142,0.844-3.214c0.278-1.057,0.557-2.15,0.394-3.231c-0.33-2.177-2.303-3.662-4.096-4.94
					c-1.982-1.414-4.055-3.293-4.105-5.922c-0.038-2.028,0.968-3.936,2.189-5.557c1.22-1.621,2.679-3.061,3.776-4.768
					c0.79-1.229,1.395-2.664,1.229-4.115c-0.103-0.901-0.498-1.744-0.949-2.531c-0.968-1.69-2.229-3.23-2.911-5.053
					c-0.683-1.824-0.644-4.113,0.76-5.462c1.153-1.107,2.9-1.298,4.497-1.23c2.777,0.119,5.471,2.077,7.683,3.609
					c2.153,1.491,3.924,3.623,6.451,4.519c3.316,1.176,7.719,0.492,9.92,3.869c1.906,2.925,0.529,6.209,0.338,9.323
					c-0.307,5.01,4.41,6.88,6.72,10.505c0.756,1.186,0.955,2.571,0.87,3.975c-0.144,2.375-0.451,4.123-1.528,6.786
					c-0.89,2.2-3.709,6.744-3.709,6.744C117.3,393.444,97.811,404.66,97.637,404.765z"/>
			</g>
			<g id="XMLID_3173_">
				<path id="XMLID_3174_" style="fill:#FFFFFF;" d="M109.248,398.365c-0.007,0-0.014,0-0.014,0
					c-0.294-0.005-0.522-0.243-0.518-0.529c0.382-20.649-9.864-43.2-17.085-49.654c-0.214-0.191-0.232-0.52-0.041-0.734
					c0.192-0.214,0.52-0.231,0.734-0.041c7.366,6.583,17.819,29.508,17.432,50.448C109.75,398.135,109.525,398.358,109.248,398.365z
					"/>
			</g>
			<g id="XMLID_3171_">
				<path id="XMLID_3172_" style="fill:#FFFFFF;" d="M105.594,374.064c-0.051,0.001-0.103-0.005-0.154-0.02
					c-6.675-1.896-14.944-2.066-15.027-2.068c-0.287-0.006-0.515-0.243-0.511-0.529c0.006-0.286,0.217-0.518,0.529-0.511
					c0.084,0.002,8.484,0.175,15.292,2.108c0.276,0.078,0.437,0.366,0.358,0.642C106.018,373.911,105.816,374.059,105.594,374.064z"
					/>
			</g>
		</g>
	</g>
</g>
<g id="Speech_Bubble">
	<g id="Speach_Bubble">
		<g id="XMLID_497_">
			<path id="XMLID_1096_" style="fill:#27DEBF;" d="M384.084,103.623l-49.856,28.735c-0.814,0.47-1.475,1.614-1.475,2.555v60.504
				c0,0.941,0.664,2.078,1.483,2.54l2.694,1.52c0.819,0.462,2.143,0.456,2.958-0.014l49.856-28.735
				c0.814-0.47,1.475-1.614,1.475-2.555v-60.504c0-0.941-0.664-2.078-1.483-2.54l-2.694-1.52
				C386.222,103.146,384.898,103.152,384.084,103.623z"/>
			<path id="XMLID_1095_" style="fill:#27DEBF;" d="M338.413,198.61v-60.504c0-0.941,0.66-2.084,1.475-2.555l49.856-28.735
				c0.814-0.47,1.475-0.089,1.475,0.852v60.504c0,0.941-0.66,2.084-1.475,2.555l-49.856,28.735
				C339.073,199.932,338.413,199.551,338.413,198.61z"/>
			<path id="XMLID_1094_" style="opacity:0.2;" d="M339.888,199.462c-0.785,0.455-2.219,0.471-2.96,0.017l-2.691-1.526
				c-0.817-0.456-1.485-1.594-1.485-2.534v-60.507c0-0.49,0.184-1.029,0.47-1.506l5.627,3.249c-0.272,0.456-0.436,0.981-0.436,1.451
				v60.501C338.413,199.468,339.02,199.965,339.888,199.462z"/>
			<path id="XMLID_1087_" style="opacity:0.4;fill:#FFFFFF;" d="M391.199,107.401c-0.116-0.743-0.722-1.008-1.458-0.586
				l-49.85,28.737c-0.409,0.238-0.777,0.64-1.042,1.104l-5.634-3.249c0.266-0.443,0.62-0.824,1.015-1.049l49.857-28.737
				c0.811-0.47,2.132-0.477,2.956-0.014l2.691,1.519C390.477,105.548,391.097,106.522,391.199,107.401z"/>
			<path id="XMLID_1044_" style="fill:#27DEBF;" d="M326.121,175.921c-0.926-0.552-5.271-3.015-5.496-3.144
				c-0.681-0.415-0.927-1.424-0.293-2.105l12.549-15.657l5.531,3.174l-12.542,15.664
				C325.257,174.508,325.501,175.472,326.121,175.921z"/>
			<path id="XMLID_1047_" style="opacity:0.4;fill:#FFFFFF;" d="M326.121,175.921c-0.926-0.552-5.271-3.015-5.496-3.144
				c-0.681-0.415-0.927-1.424-0.293-2.105l12.549-15.657l5.531,3.174l-12.542,15.664
				C325.257,174.508,325.501,175.472,326.121,175.921z"/>
			<path id="XMLID_1040_" style="fill:#27DEBF;" d="M338.413,158.193l-12.545,15.659c-0.85,0.912-0.226,2.163,0.843,2.262
				l11.702,1.268L342,167.5L338.413,158.193z"/>
		</g>
		<g id="XMLID_1041_">
			<path id="XMLID_1097_" style="fill:#FAFAFA;" d="M379.813,148.157c-0.116,1.551-0.389,3.003-0.818,4.361
				c-0.431,1.358-0.956,2.577-1.576,3.659c-0.62,1.082-1.31,2.014-2.064,2.792c-0.756,0.78-1.518,1.364-2.285,1.757
				c-1.37,0.701-2.421,0.953-3.151,0.759c-0.731-0.194-1.275-0.534-1.632-1.019c-0.236,0.513-0.484,1.034-0.747,1.558
				c-0.263,0.527-0.592,1.048-0.988,1.565c-0.396,0.517-0.886,1.022-1.469,1.517c-0.583,0.495-1.301,0.96-2.151,1.394
				c-1.014,0.519-1.921,0.698-2.72,0.537c-0.798-0.16-1.472-0.629-2.017-1.409c-0.547-0.78-0.947-1.839-1.202-3.18
				c-0.256-1.339-0.346-2.931-0.272-4.773c0.074-1.841,0.29-3.59,0.652-5.246c0.362-1.655,0.838-3.165,1.429-4.524
				c0.591-1.362,1.303-2.55,2.136-3.564c0.832-1.014,1.756-1.781,2.771-2.301c1.123-0.575,1.948-0.751,2.477-0.532
				c0.527,0.222,0.956,0.621,1.282,1.198l0.022-0.541c0.018-0.44,0.142-0.875,0.373-1.308c0.232-0.433,0.499-0.727,0.801-0.881
				l2.138-1.093c0.3-0.154,0.556-0.128,0.763,0.081c0.205,0.208,0.3,0.533,0.282,0.972l-0.511,12.791
				c-0.039,0.961,0.145,1.595,0.549,1.897c0.404,0.303,0.88,0.315,1.428,0.035c0.548-0.281,1.032-0.793,1.451-1.537
				c0.418-0.743,0.681-1.771,0.787-3.08c0.098-1.109,0.17-2.254,0.217-3.436c0.047-1.181,0.05-2.27,0.01-3.27
				c-0.077-2.117-0.342-3.884-0.795-5.299c-0.454-1.416-1.119-2.439-1.992-3.07c-0.875-0.632-1.994-0.873-3.354-0.726
				c-1.363,0.148-2.989,0.704-4.88,1.672c-1.59,0.813-3.029,1.874-4.315,3.179c-1.287,1.305-2.406,2.78-3.359,4.423
				c-0.951,1.645-1.735,3.427-2.348,5.348c-0.614,1.924-1.041,3.887-1.282,5.893c-0.076,0.549-0.137,1.256-0.185,2.124
				c-0.048,0.868-0.091,1.772-0.129,2.712c-0.038,0.942-0.067,1.85-0.088,2.723c-0.022,0.874-0.016,1.576,0.017,2.108
				c0.088,1.838,0.373,3.418,0.857,4.738c0.484,1.322,1.155,2.343,2.012,3.059c0.858,0.719,1.903,1.086,3.138,1.102
				c1.235,0.016,2.647-0.383,4.237-1.197c1.124-0.574,2.1-1.153,2.929-1.733c0.828-0.581,1.556-1.171,2.185-1.765
				c0.628-0.597,1.166-1.176,1.62-1.741c0.451-0.565,0.863-1.118,1.234-1.661c0.314-0.473,0.562-0.825,0.747-1.058
				c0.183-0.231,0.426-0.424,0.728-0.579l3.042-1.557c0.301-0.153,0.562-0.14,0.784,0.041c0.22,0.18,0.307,0.539,0.259,1.073
				c-0.013,0.32-0.12,0.67-0.323,1.048c-0.609,1.135-1.295,2.329-2.057,3.582c-0.761,1.251-1.663,2.478-2.704,3.677
				c-1.042,1.2-2.269,2.377-3.685,3.533c-1.416,1.155-3.083,2.225-5.001,3.206c-2.385,1.22-4.461,1.78-6.229,1.686
				c-1.768-0.096-3.242-0.695-4.418-1.799c-1.179-1.104-2.078-2.625-2.697-4.563c-0.622-1.936-0.964-4.126-1.027-6.563
				c-0.005-0.546,0.005-1.286,0.028-2.221c0.023-0.932,0.057-1.91,0.097-2.932c0.041-1.021,0.086-1.995,0.137-2.923
				c0.049-0.929,0.099-1.66,0.147-2.194c0.236-2.551,0.75-5.157,1.541-7.818c0.791-2.659,1.852-5.192,3.183-7.6
				c1.33-2.406,2.929-4.607,4.795-6.6c1.863-1.992,3.989-3.599,6.374-4.819c2.796-1.43,5.146-2.143,7.052-2.137
				c1.906,0.005,3.448,0.549,4.627,1.632c1.177,1.085,2.03,2.631,2.555,4.636c0.523,2.007,0.815,4.288,0.874,6.847
				c0.013,1.014-0.008,2.21-0.063,3.592C379.986,145.803,379.91,147.048,379.813,148.157z M361.035,155.468
				c-0.078,1.962,0.121,3.35,0.599,4.165c0.477,0.815,1.194,0.977,2.155,0.486c1.013-0.518,1.796-1.438,2.346-2.758
				c0.548-1.321,0.864-2.981,0.945-4.984c0.078-1.961-0.116-3.363-0.578-4.205c-0.463-0.841-1.203-1.001-2.216-0.484
				c-0.961,0.491-1.721,1.419-2.285,2.786C361.435,151.842,361.114,153.507,361.035,155.468z"/>
		</g>
	</g>
</g>
<g id="Character">
	<g id="Character_1_">
		<g id="XMLID_1216_">
			<g id="XMLID_1502_">
				<path id="XMLID_1504_" style="fill:#FFB9A7;" d="M413.087,223.643c7.255-0.04,10.461,1.306,13.072,8.253
					c2.611,6.947,9.54,22.864,9.675,27.597c0.139,4.909-15.664,19.788-15.098,19.532c0.174-0.079-4.816-9.018-4.816-9.018
					l8.888-10.894l-5.095-14.791L413.087,223.643z"/>
			</g>
			<path id="XMLID_3138_" style="fill:#27DEBF;" d="M415.647,223.467c3.144,0.272,6.216,0.806,8.548,3.581
				c2.332,2.776,8.159,19.437,8.159,19.437s-2.73,4.45-10.988,5.107l-4.456-11.547L415.647,223.467z"/>
			<path id="XMLID_6_" style="opacity:0.4;" d="M415.647,223.467c3.144,0.272,6.216,0.806,8.548,3.581
				c2.332,2.776,8.159,19.437,8.159,19.437s-2.73,4.45-10.988,5.107l-4.456-11.547L415.647,223.467z"/>
		</g>
		<g id="XMLID_1262_">
			<g id="XMLID_1137_">
				<g id="XMLID_1499_">
					<path id="XMLID_1501_" style="fill:#263238;" d="M421.83,385.517c0.444,0.424,0.529,0.835,0.514,2.381
						c-0.014,1.55,0.64,3.276-0.155,4.72c-0.594,1.079-3.624,1.822-5.164,1.023c-1.282-0.665-2.56-2.146-3.553-3.195
						c-0.994-1.048-1.953-2.145-3.111-3.008c-1.306-0.973-2.824-1.62-4.186-2.512c-2.134-1.397-3.597-3.716-3.794-6.268
						c-0.059-0.758,0.067-1.752,0.486-2.387c0.558-0.846,1.731-1.054,2.732-0.894c1.476,0.237,6.474,3.03,7.631,3.829
						C414.677,380.208,421.371,385.08,421.83,385.517z"/>
				</g>
				<path id="XMLID_1241_" style="fill:#FFB9A7;" d="M414.569,377.509c0.068,0.422-0.088,1.598-0.088,1.599l0,0
					c-0.048,1.112-4.73-1.489-6.648-1.235c-0.02,0.003-0.036,0.017-0.053,0.025c-1.78,0.857-0.303,3.355,1.357,4.634
					c1.524,1.174,6.196,4.612,6.955,5.17c2.443,1.905,5.364,0.357,5.503-0.643c0.203-2.622,0.069-5.384,0.492-9.55H414.569z"/>
			</g>
			<g id="XMLID_1136_">
				<path id="XMLID_1497_" style="fill:#263238;" d="M394.183,397.188c0.868-0.003,1.254,2.84,1.414,5.035
					c0.124,1.695,0.766,4.461,0.166,5.706c-0.6,1.245-2.886,2.025-6.413,1.952c-2.285-0.047-5.865,1.458-8.321,2.787
					c-2.536,1.372-5.268,1.342-7.927,0.995c-3.134-0.409-6.362-2.272-6.852-3.578c-0.491-1.306,0.17-1.923,7.607-4.978
					c0.068-0.028,7.845-3.42,11.475-7.323L394.183,397.188z"/>
				<path id="XMLID_1240_" style="fill:#FFB9A7;" d="M395.067,391.493l-9.209-0.045c-0.108,2.16-0.277,4.284-0.525,6.335l0,0
					c-3.63,3.903-11.408,7.295-11.476,7.323c-1.029,0.423-1.917,0.796-2.702,1.133c-0.201,0.703,0.068,1.817,3.354,2.365
					c4.406,0.735,16.32-7.746,19.125-9.799c0.209-0.138,0.411-0.284,0.601-0.444C394.375,396.36,394.671,394.022,395.067,391.493z"
					/>
			</g>
			<g id="XMLID_1264_">
				<path id="XMLID_1103_" style="fill:#455A64;" d="M422.239,378.203c1.026-10.68,2.569-23.956,2.569-29.088
					c0-8.949-1.438-14.516-1.438-14.516s1.639-20.774,2.042-32.516c0.76-22.18,1.22-23.196-3.032-34.854
					c0,0-34.372-3.26-35.637,11.362c-1.574,18.21-2.457,48.699-2.408,57.371c0.036,6.457,0.767,13.456,1.123,28.098
					c0.186,7.644-0.125,17.703,0.093,27.389c1.637,2.705,8.886,1.503,9.986,0.2c1.754-11.201,4.998-26.292,5.68-32.215
					c0.865-7.515-0.64-15.685-0.64-15.685s3.975-31.016,4.673-35.737c0,0,1.805,8.692,1.74,15.15
					c-0.021,2.059,1.313,8.74,2.492,20.358c0.539,5.318,2.993,20.844,4.67,33.989C415.363,379.563,421.111,380.221,422.239,378.203z
					"/>
				<path id="XMLID_1263_" style="opacity:0.15;" d="M405.25,308.012l2.652-15.062c0,0,6.149-0.493,11.81-6.201
					c0,0-1.589,6.024-9.387,8.073l-3.103,13.628l-0.525,12.424L405.25,308.012z"/>
			</g>
		</g>
		<g id="XMLID_1142_">
			<polygon id="XMLID_1242_" style="fill:#FFB9A7;" points="400.025,217.855 401.062,231.501 411.505,230.729 410.763,215.594 			
				"/>
			<path id="XMLID_6514_" style="fill:#263238;" d="M400.435,185.916c0,0-5.66-0.992-9.644,3.494
				c-6.137,6.912,0.592,11.996,0.592,11.996L400.435,185.916"/>
			<g id="XMLID_1144_">
				<path id="XMLID_1236_" style="fill:#F29E8F;" d="M389.761,202.853c0,0-2.666,4.007-2.321,4.433
					c0.345,0.425,2.032,0.882,2.032,0.882L389.761,202.853z"/>
				<path id="XMLID_1212_" style="fill:#FFB9A7;" d="M397.908,190.156c-2.585,1.327-7.052,3.779-8.225,13.284
					c-1.203,9.757,0.961,13.155,2.288,14.438c0.896,0.866,5.53,1.191,7.949,0.447c3.028-0.931,9.589-4.152,12.675-9.182
					c3.63-5.917,4.397-13.815,0.234-16.923C406.97,187.846,400.096,189.033,397.908,190.156z"/>
			</g>
			<path id="XMLID_1143_" style="fill:#263238;" d="M396.616,201.38c-5.406-2.752-4.028-9.93-4.028-9.93s7.727-11.036,21.975-3.898
				c4.93,2.47,7.888,8.079,7.767,14.647l0,0c0,8.541-6.924,15.465-15.465,15.465l0,0c-4.979,0-9.016-4.037-9.016-9.016v-0.597
				l0.457,0.147c0.781,0.199,2.469,0.373,4.208-1.125c2.371-2.043,2.657-6.051-0.347-7.063c-2.984-1.005-4.572,2.466-4.572,2.466
				c-0.001-0.001-0.002-0.003-0.003-0.004l-1.163,3.191c-1.178-0.429-1.785-1.732-1.356-2.911
				C395.334,202.036,395.932,201.569,396.616,201.38z"/>
			<circle style="fill:#263238;" cx="398" cy="211.5" r="4"/>
			<circle style="fill:#263238;" cx="421" cy="209.5" r="4"/>
			<circle style="fill:#263238;" cx="409" cy="216.5" r="4"/>
			<circle style="fill:#263238;" cx="403" cy="215.5" r="5"/>
			<circle style="fill:#263238;" cx="416" cy="214.5" r="5"/>
		</g>
		<g id="XMLID_1237_">
			<g id="XMLID_1238_">
				<path id="XMLID_1239_" style="fill:#263238;" d="M418.946,257.01c5.126-16.51,4.43-18.285,3.434-25.345
					c-0.634-4.492-2.628-7.268-7.182-8.314l-4.077-0.442c0.32,3.042-9.429,3.347-10.626,1.14l-7.596,0.127
					c-2.149,0.761-7.095,11.416-7.9,18.522c-0.654,5.774,3.868,10.777,3.868,10.777c0.175,2.295-1.458,6.907-1.458,6.907
					s-0.806,13.944-1.273,21.094c0,0,3.982,5.421,21.595,3.917c11.981-1.023,18.305-6.802,18.305-6.802
					S425.063,268.818,418.946,257.01z"/>
			</g>
		</g>
		<g id="XMLID_3139_">
			<path id="XMLID_3137_" style="fill:#FFB9A7;" d="M391.255,263.042c1.078-2.005,3.009-22.967,3.724-30.182l-11.333,5.785
				l-2.52,20.318c-0.614,1.349-5.773,12.281-9.412,16.398c-0.645,0.729-1.55,1.173-2.517,1.289
				c-2.593,0.311-4.005,1.218-6.256,2.089c-1.762,0.682-2.913,0.517-2.943,0.983c-0.038,0.6,0.421,1.815,2.076,2.053
				c0.833,0.12,2.042-0.008,3.568-0.206c0,0-1.947,1.905-5.214,3.472c-4.428,2.124-6.93,4.032-1.282,6.749
				c3.539,1.702,8.932,0.606,15.288-5.969c1.831-1.894,4.253-5.033,6.311-7.662C385.609,271.942,388.306,268.53,391.255,263.042z"/>
			<path id="XMLID_3136_" style="fill:#27DEBF;" d="M383,236.75c0.449-6.33,2.759-12.806,9.9-12.574
				c2.507,2.754,2.825,6.871,2.252,13.288c-0.485,5.429-1.438,15.372-1.438,15.372c-2.345,1.46-9.946,0.586-12.497-1.423L383,236.75
				z"/>
			<path id="XMLID_1_" style="opacity:0.4;" d="M383,236.75c0.449-6.33,2.759-12.806,9.9-12.574
				c2.507,2.754,2.825,6.871,2.252,13.288c-0.485,5.429-1.438,15.372-1.438,15.372c-2.345,1.46-9.946,0.586-12.497-1.423L383,236.75
				z"/>
		</g>
	</g>
</g>
</svg>
